<?xml version="1.0" encoding="UTF-8"?>
<svg version="1.1" xmlns="http://www.w3.org/2000/svg" style="display: block;" viewBox="0 0 2048 2048" preserveAspectRatio="xMidYMid meet">
<path transform="translate(0,0)" fill="rgb(255,255,255)" d="M 0 0 L 2048 0 L 2048 2048 L 0 2048 L 0 0 z"/>
<path transform="translate(0,0)" fill="rgb(141,188,77)" d="M 976.296 232.255 C 983.038 197.003 996.686 159.712 1027.88 138.732 C 1042.96 128.669 1061.39 124.943 1079.19 128.359 C 1126.31 137.616 1145.15 191.68 1152.42 232.987 C 1283.1 254.785 1353.51 309.519 1400.29 433.044 C 1476.31 432.337 1592.4 452.273 1647.99 507.226 C 1693.06 551.772 1721.18 621.022 1721.06 684.316 C 1721 721.402 1711.1 772.178 1684.12 799.796 C 1668.8 815.469 1651.05 821.142 1630.55 826.461 C 1625.46 852.077 1613.35 886.968 1590.85 902.985 C 1582.39 909 1576.15 909.315 1566.55 908.706 C 1573.78 927.567 1580.34 944.517 1581.49 964.804 C 1583.6 1001.96 1569.6 1035.72 1544.74 1062.92 C 1541.21 1066.78 1526.25 1079.28 1525.35 1082.45 C 1551.88 1078.44 1578.39 1071.35 1604.51 1065.02 C 1616.6 1049.18 1632.21 1029.08 1649.24 1018.56 C 1665.3 1008.65 1687.05 1007.9 1702.67 1019.7 C 1712.74 1027.35 1719.17 1038.84 1720.42 1051.42 C 1721.3 1059.54 1720.27 1064.17 1718.57 1071.85 C 1734.21 1067.14 1746.52 1065.23 1762 1073.61 C 1773.45 1079.81 1781.98 1090.29 1785.72 1102.76 C 1793.75 1129.77 1778.51 1151.73 1756.98 1165.84 C 1781.72 1185.43 1789.16 1216.29 1768.11 1242.27 C 1745.76 1269.85 1711.62 1269.74 1679.79 1261.77 C 1641.76 1295.64 1576.76 1333.93 1527.83 1348.1 C 1531.38 1394.85 1530.77 1430.55 1524.1 1477.11 C 1520.02 1509.07 1509.7 1539.84 1502.15 1570.95 C 1493.3 1607.37 1491.62 1645.33 1490.66 1682.12 C 1489.59 1722.77 1492.52 1727.79 1514.62 1760.04 C 1529.34 1781.53 1531.85 1828.16 1513.49 1848.12 C 1504.59 1858.77 1492.87 1863.45 1479.33 1865.54 C 1472.11 1866.51 1463.85 1867.83 1456.68 1868.49 C 1440.91 1871.17 1410.2 1873.95 1394 1874.09 C 1388.37 1874.27 1383.76 1874.29 1378.13 1874.14 C 1339.9 1877.61 1257.43 1876.81 1219.29 1870.41 C 1182.59 1867.72 1139.47 1861.31 1129.36 1821.38 C 1124.37 1801.66 1120.27 1779.79 1119.87 1759.52 C 1119.46 1756.1 1119.56 1752.92 1117.76 1750.29 C 1095.32 1750.55 1075.88 1752.38 1052.54 1751.76 C 1049.64 1768.03 1046.4 1784.71 1046.37 1801.27 C 1046.35 1810.93 1050.12 1820.52 1051.01 1830.02 C 1056.15 1884.56 1030.28 1894.23 984.47 1899 L 956.973 1901.44 C 952.542 1902.86 929.736 1904.07 924.353 1904.33 C 869.999 1906.93 813.969 1907.49 759.929 1900.65 C 733.394 1897.3 692.858 1890.21 675.563 1867.54 C 653.984 1839.26 657.999 1782.86 662.365 1749.16 C 649.457 1748.87 631.036 1745.37 617.991 1743.18 C 549.572 1731.69 486.935 1706.67 430.615 1665.55 C 362.559 1615.48 305.138 1541.17 290.646 1456.48 C 284.408 1420.03 300.336 1385.36 339.872 1380.77 C 382.316 1375.85 418.088 1413.92 449.142 1437.95 C 454.837 1420.66 463.369 1401.16 479.294 1390.72 C 521.18 1363.26 560.459 1419.56 576.28 1451.78 C 581.005 1449.89 585.478 1448.45 590.297 1446.86 C 587.942 1441.83 585.801 1436.71 583.879 1431.5 C 567.558 1387.51 566.208 1332.44 618.332 1313.86 C 598.128 1303.63 585.474 1296.66 567.204 1282.78 C 558.467 1283.2 550.078 1283.42 540.972 1283.13 C 506.719 1282.03 462.018 1262.53 464.358 1221.84 C 465.281 1205.77 474.591 1193.87 486.067 1183.75 C 464.047 1171.88 447.253 1153.47 449.978 1126.5 C 451.417 1112.29 458.488 1099.24 469.612 1090.27 C 483.863 1078.71 498.373 1077.43 515.608 1078.93 C 513.429 1073.23 513.22 1069.73 512.557 1063.79 C 511.088 1054.28 515.204 1041.77 520.939 1034.06 C 529.092 1023.03 541.44 1015.85 555.065 1014.22 C 591.16 1010.25 616.379 1043.79 635.447 1069.73 C 643.199 1069.96 650.947 1070.34 658.686 1070.86 C 632.222 1032.15 645.544 989.357 686.982 969.023 C 687.297 965.611 679.391 946.144 677.599 940.962 C 669.387 917.21 660.747 893.473 654.801 869.027 C 653.777 864.817 653.904 865.241 651.2 863.771 C 610.959 848.296 560.255 822.617 542.92 781.054 C 514.94 713.967 582.944 669.605 634.621 648.533 C 635.635 623.066 639.868 595.839 644.833 570.883 C 629.25 559.589 615.163 546.364 602.909 531.524 C 568.191 488.812 554.199 434.356 602.482 395.907 C 641.168 365.101 689.138 362.515 736.01 367.915 C 746.133 354.803 760.822 340.147 773.128 329.119 C 757.671 292.593 745.232 253.448 750.076 213.551 C 755.968 165.017 793.831 139.336 841.271 147.29 C 892.698 155.913 939.588 194.928 969.728 235.735 C 971.555 235.388 973.271 234.9 975.069 234.431 L 976.296 232.255 z"/>
<path transform="translate(0,0)" fill="rgb(254,238,192)" d="M 1052.2 1099.41 C 1052.44 1099.51 1052.67 1099.61 1052.91 1099.71 C 1172.28 1142.75 1344.45 1168.37 1463.22 1119.14 C 1473.6 1142.15 1484.59 1176.19 1490.52 1200.73 C 1514.86 1301.45 1517.58 1403.52 1480.97 1501.62 C 1445.36 1597.06 1378.37 1665.62 1286.17 1707.6 C 1284.63 1708.3 1281.1 1709.69 1279.78 1710.42 C 1249.33 1722.47 1227.6 1729.5 1194.63 1734.07 C 1096.8 1734.93 1028.2 1705.73 965.283 1628.16 C 839.279 1472.8 904.176 1216.81 1052.2 1099.41 z"/>
<path transform="translate(0,0)" fill="rgb(122,175,67)" d="M 662.365 1749.16 C 649.457 1748.87 631.036 1745.37 617.991 1743.18 C 549.572 1731.69 486.935 1706.67 430.615 1665.55 C 362.559 1615.48 305.138 1541.17 290.646 1456.48 C 284.408 1420.03 300.336 1385.36 339.872 1380.77 C 382.316 1375.85 418.088 1413.92 449.142 1437.95 C 454.837 1420.66 463.369 1401.16 479.294 1390.72 C 521.18 1363.26 560.459 1419.56 576.28 1451.78 C 581.005 1449.89 585.478 1448.45 590.297 1446.86 C 612.034 1443.73 643.019 1413.49 657.095 1397.16 C 655.979 1439.2 656.495 1478.9 661.786 1520.75 C 665.787 1552.41 671.018 1584.01 672.887 1615.84 C 673.841 1655.15 667.852 1710.09 662.365 1749.16 z"/>
<path transform="translate(0,0)" fill="rgb(45,137,40)" d="M 449.142 1437.95 C 454.837 1420.66 463.369 1401.16 479.294 1390.72 C 521.18 1363.26 560.459 1419.56 576.28 1451.78 C 541.154 1468.97 477.986 1466.49 449.142 1437.95 z"/>
<path transform="translate(0,0)" fill="rgb(31,84,23)" d="M 929.478 704.312 L 930.311 704.469 C 953.829 731.392 974.933 751.082 1005.92 770.007 C 1013.36 774.556 1029.6 781.654 1035.39 785.686 C 1052.09 792.106 1068.34 799.325 1085.39 804.885 C 1089.87 806.346 1095.39 808.038 1099.66 809.849 C 1103.24 810.78 1120.34 815.564 1123.28 816.998 C 1146.29 822.5 1169.45 827.367 1192.73 831.596 C 1199.04 832.696 1227.4 835.49 1229.75 838.966 C 1232.96 836.821 1239.77 838.28 1243.99 838.926 C 1243.91 846.641 1243.28 867.735 1244.88 874.351 C 1244.8 862.626 1244.82 850.9 1244.93 839.176 C 1289.56 844.666 1334.45 847.716 1379.41 848.313 C 1383.22 848.199 1391.91 847.615 1395.18 848.828 C 1407.52 847.284 1429.61 848.434 1442.81 848.015 C 1470.69 847 1498.54 845.062 1526.3 842.204 C 1531.21 841.86 1536.13 841.49 1541.04 841.094 C 1541.1 857.075 1542.34 872.747 1546.53 888.216 L 1545.66 888.56 C 1537.77 887.241 1530.74 870.975 1525.14 871.389 L 1524.21 875.35 C 1527.93 892.858 1542.27 905.867 1533.24 927.733 C 1526.31 944.507 1503.36 960.483 1487.29 966.973 C 1416.13 995.727 1296.67 979.645 1225.04 961.547 C 1202.04 955.595 1179.43 948.268 1157.31 939.606 C 1046.82 896.971 979.627 834.259 931.694 725.965 C 929.047 717.875 921.863 710.788 929.478 704.312 z"/>
<path transform="translate(0,0)" fill="rgb(254,238,192)" d="M 1395.18 848.828 C 1407.52 847.284 1429.61 848.434 1442.81 848.015 C 1470.69 847 1498.54 845.062 1526.3 842.204 C 1525.9 851.709 1523.82 862.747 1522.3 872.269 C 1516.05 899.162 1506.37 929.743 1487.58 950.418 C 1470.09 970.734 1433.68 974.579 1414.96 953.866 C 1393.05 929.628 1394.9 879.28 1395.18 848.828 z"/>
<path transform="translate(0,0)" fill="rgb(254,238,192)" d="M 1244.93 839.176 C 1289.56 844.666 1334.45 847.716 1379.41 848.313 C 1370.24 889.462 1346.34 975.685 1287.82 961.724 C 1250.75 952.883 1247.07 905.849 1244.88 874.351 C 1244.8 862.626 1244.82 850.9 1244.93 839.176 z"/>
<path transform="translate(0,0)" fill="rgb(254,238,192)" d="M 1123.28 816.998 C 1146.29 822.5 1169.45 827.367 1192.73 831.596 C 1199.04 832.696 1227.4 835.49 1229.75 838.966 C 1222.7 868.609 1204.33 935.687 1164.63 931.371 C 1118.65 926.373 1119.12 849.957 1123.28 816.998 z"/>
<path transform="translate(0,0)" fill="rgb(254,238,192)" d="M 1035.39 785.686 C 1052.09 792.106 1068.34 799.325 1085.39 804.885 C 1089.87 806.346 1095.39 808.038 1099.66 809.849 C 1091.82 830.243 1068.84 878.249 1040.93 846.042 C 1028.1 831.24 1033.11 804.141 1035.39 785.686 z"/>
<path transform="translate(0,0)" fill="rgb(45,137,40)" d="M 773.128 329.119 C 757.671 292.593 745.232 253.448 750.076 213.551 C 755.968 165.017 793.831 139.336 841.271 147.29 C 892.698 155.913 939.588 194.928 969.728 235.735 C 887.449 255.126 838.896 275.444 773.128 329.119 z"/>
<path transform="translate(0,0)" fill="rgb(45,137,40)" d="M 644.833 570.883 C 629.25 559.589 615.163 546.364 602.909 531.524 C 568.191 488.812 554.199 434.356 602.482 395.907 C 641.168 365.101 689.138 362.515 736.01 367.915 C 681.076 440.732 666.051 483.742 644.833 570.883 z"/>
<path transform="translate(0,0)" fill="rgb(45,137,40)" d="M 634.621 648.533 C 632.441 701.273 632.398 749.937 641.02 802.309 C 642.181 809.361 652.497 861.619 652.262 862.852 L 651.2 863.771 C 610.959 848.296 560.255 822.617 542.92 781.054 C 514.94 713.967 582.944 669.605 634.621 648.533 z"/>
<path transform="translate(0,0)" fill="rgb(45,137,40)" d="M 976.296 232.255 C 983.038 197.003 996.686 159.712 1027.88 138.732 C 1042.96 128.669 1061.39 124.943 1079.19 128.359 C 1126.31 137.616 1145.15 191.68 1152.42 232.987 C 1111.92 226.889 1070.86 225.307 1030.01 228.27 C 1020.48 229.038 1010.95 229.984 1001.45 231.052 C 994.12 231.875 984.805 234.308 977.676 234.062 L 976.296 232.255 z"/>
<path transform="translate(0,0)" fill="rgb(122,175,67)" d="M 1194.63 1734.07 C 1227.6 1729.5 1249.33 1722.47 1279.78 1710.42 C 1276.5 1718.33 1257.32 1731.15 1250.35 1738.6 C 1224.12 1766.64 1202.18 1807.78 1211.01 1847.2 C 1212.09 1851.63 1218.98 1862.62 1221.08 1868.5 L 1219.29 1870.41 C 1182.59 1867.72 1139.47 1861.31 1129.36 1821.38 C 1124.37 1801.66 1120.27 1779.79 1119.87 1759.52 C 1120.17 1756.52 1120.43 1753.51 1120.66 1750.5 C 1125.19 1748.65 1135.9 1747.89 1141.52 1746.89 C 1159.42 1743.7 1177.7 1740.95 1194.63 1734.07 z"/>
<path transform="translate(0,0)" fill="rgb(45,137,40)" d="M 618.332 1313.86 C 634.712 1319.71 647.801 1324.59 664.976 1328.04 C 663.141 1338.28 661.721 1348.59 660.719 1358.94 C 660.039 1366.29 658.354 1391.14 657.095 1397.16 C 643.019 1413.49 612.034 1443.73 590.297 1446.86 C 587.942 1441.83 585.801 1436.71 583.879 1431.5 C 567.558 1387.51 566.208 1332.44 618.332 1313.86 z"/>
<path transform="translate(0,0)" fill="rgb(254,238,192)" d="M 1541.04 841.094 C 1573.46 836.212 1597.81 834.24 1630.55 826.461 C 1625.46 852.077 1613.35 886.968 1590.85 902.985 C 1582.39 909 1576.15 909.315 1566.55 908.706 C 1553.65 902.843 1551.8 901.032 1546.53 888.216 C 1542.34 872.747 1541.1 857.075 1541.04 841.094 z"/>
<path transform="translate(0,0)" fill="rgb(45,137,40)" d="M 686.982 969.023 C 693.686 976.83 704.745 1020.46 706.034 1031.52 C 707.158 1041.96 707.292 1052.47 706.435 1062.93 C 706.118 1067.03 705.734 1071.13 705.283 1075.22 C 697.119 1074.62 664.313 1072.56 658.686 1070.86 C 632.222 1032.15 645.544 989.357 686.982 969.023 z"/>
<path transform="translate(0,0)" fill="rgb(122,175,67)" d="M 957.502 1798.96 C 986.755 1826.14 989.72 1861.48 984.47 1899 L 956.973 1901.44 C 968.28 1857.61 967.767 1843.42 957.502 1798.96 z"/>
<path transform="translate(0,0)" fill="rgb(122,175,67)" d="M 1369.31 1773.54 C 1393.97 1791.04 1406.67 1848.41 1394 1874.09 C 1388.37 1874.27 1383.76 1874.29 1378.13 1874.14 C 1374.95 1873.86 1372.23 1874.03 1369.57 1872.68 C 1371.09 1863.22 1374.86 1853.83 1376.71 1844.56 C 1381.15 1822.28 1376.84 1794.81 1369.31 1773.54 z"/>
<path transform="translate(0,0)" fill="rgb(122,175,67)" d="M 664.976 1328.04 C 701.759 1331.64 714.99 1330.15 749.592 1319.56 C 727.83 1343.24 693.24 1360.02 660.719 1358.94 C 661.721 1348.59 663.141 1338.28 664.976 1328.04 z"/>
<path transform="translate(0,0)" fill="rgb(122,175,67)" d="M 1449.85 1767.95 C 1455.27 1771.72 1460.07 1776.31 1464.09 1781.54 C 1484.48 1807.84 1483.25 1834.87 1479.33 1865.54 C 1472.11 1866.51 1463.85 1867.83 1456.68 1868.49 C 1456.06 1868.05 1455.44 1867.62 1454.82 1867.18 C 1455.41 1859.5 1461.78 1846.08 1462.38 1838.77 C 1464.72 1810.08 1460.27 1793.44 1449.85 1767.95 z"/>
<path transform="translate(0,0)" fill="rgb(122,175,67)" d="M 926.748 696.334 C 930.79 694.621 937.716 691.016 941.655 691.484 L 942.565 692.609 C 939.736 698.652 932.255 700.394 930.311 704.469 L 929.478 704.312 C 921.863 710.788 929.047 717.875 931.694 725.965 C 921.902 726.426 911.486 725.799 901.434 726.343 C 887.318 727.106 875.923 729.306 862.277 732.121 C 879.561 715.586 904.598 705.237 926.748 696.334 z"/>
<path transform="translate(0,0)" fill="rgb(122,175,67)" d="M 512.557 1063.79 L 513.974 1062.18 C 522.817 1064.05 525.609 1075.95 532.01 1082.4 C 545.31 1095.79 557.378 1111.18 570.684 1124.41 C 553.139 1118.75 526.512 1105.09 517.984 1087.81 C 516.497 1084.79 514.791 1082.2 515.608 1078.93 C 513.429 1073.23 513.22 1069.73 512.557 1063.79 z"/>
<path transform="translate(0,0)" fill="rgb(0,0,0)" d="M 951.657 467.33 C 1026.01 465.232 1037.27 591.623 958.448 605.516 C 871.847 602.763 877.895 478.09 951.657 467.33 z"/>
<path transform="translate(0,0)" fill="rgb(255,255,255)" d="M 973.082 496.956 C 981.866 496.78 987.712 498.868 992.298 506.964 C 995.616 512.792 996.283 519.761 994.131 526.113 C 991.837 532.801 988.381 535.422 982.366 538.314 C 973.102 538.458 966.787 536.344 962.227 527.488 C 959.46 522.044 958.98 515.72 960.895 509.92 C 963.196 502.952 966.952 500.225 973.082 496.956 z"/>
<path transform="translate(0,0)" fill="rgb(31,84,23)" d="M 1348.12 583.271 C 1392.28 579.296 1427.23 626.877 1385.31 638.967 C 1345.97 642.814 1305.8 595.917 1348.12 583.271 z"/>
<path transform="translate(0,0)" fill="rgb(31,84,23)" d="M 1603.49 568.204 C 1637.43 565.841 1648.42 608.944 1614.46 625.807 C 1609.17 626.282 1604.32 626.857 1599.37 624.264 C 1585.16 616.811 1579.09 594.149 1586.69 580.272 C 1590.69 572.97 1595.84 570.593 1603.49 568.204 z"/>
<path transform="translate(0,0)" fill="rgb(122,175,67)" d="M 860.702 1799.47 C 881.543 1814.83 892.638 1884.76 880.547 1904.41 L 878.249 1904.83 C 869.953 1905.08 861.357 1905.05 853.034 1905.13 C 864.955 1864.75 864.642 1840.69 860.702 1799.47 z"/>
<path transform="translate(0,0)" fill="rgb(122,175,67)" d="M 499.905 1175.3 C 506.234 1174.84 518.771 1176.55 523.014 1181.47 L 522.697 1183.35 C 519.512 1185.79 514.064 1185.85 509.844 1186.34 C 504.186 1187.04 489.068 1188.99 487.219 1181.88 C 489.711 1178.42 495.903 1176.48 499.905 1175.3 z"/>
<path transform="translate(0,0)" fill="rgb(122,175,67)" d="M 1057.52 1723.66 C 1057.8 1723.91 1058.08 1724.17 1058.36 1724.42 C 1060.81 1732.08 1061.79 1746.55 1056.38 1751.73 L 1053.84 1750.3 C 1051.04 1741.46 1054.04 1731.84 1057.52 1723.66 z"/>
</svg>